<svg xmlns="http://www.w3.org/2000/svg" viewBox="0 0 256 256" fill="#FFF"><path d="M234.6,193.25A124.41,124.41,0,0,0,253,128h0A124.41,124.41,0,0,0,234.6,62.75l-.07-.11a125,125,0,0,0-213.06,0l-.07.11a125,125,0,0,0,0,130.5l.07.11a125,125,0,0,0,213.06,0ZM144,231.56a30.69,30.69,0,0,1-8.12,5.61,18.34,18.34,0,0,1-15.72,0A38.23,38.23,0,0,1,106,224.69a111.72,111.72,0,0,1-16.14-35q19.07-1.18,38.18-1.2t38.18,1.2a142.41,142.41,0,0,1-6.84,18.85,72.72,72.72,0,0,1-15.36,23ZM17.3,135H67.72a247.64,247.64,0,0,0,4.55,41.89q-20.67,1.82-41.23,5A110.33,110.33,0,0,1,17.3,135ZM31,74.09q20.55,3.19,41.25,5A247.67,247.67,0,0,0,67.72,121H17.3A110.33,110.33,0,0,1,31,74.09Zm81-49.65a30.69,30.69,0,0,1,8.12-5.61,18.34,18.34,0,0,1,15.72,0A38.31,38.31,0,0,1,150,31.31a111.72,111.72,0,0,1,16.14,35q-19.06,1.19-38.18,1.2t-38.18-1.2a142.41,142.41,0,0,1,6.84-18.85A72.55,72.55,0,0,1,112,24.44ZM238.69,121H188.28a248.67,248.67,0,0,0-4.55-41.89q20.67-1.82,41.23-5A110.18,110.18,0,0,1,238.69,121ZM86.4,175.82A232.22,232.22,0,0,1,81.76,135h92.48a232.21,232.21,0,0,1-4.63,40.8q-20.78-1.37-41.61-1.39T86.4,175.82Zm83.2-95.64a232.22,232.22,0,0,1,4.64,40.8H81.76a232.21,232.21,0,0,1,4.63-40.8q20.77,1.36,41.61,1.39t41.6-1.39ZM188.28,135h50.41A110.18,110.18,0,0,1,225,181.91q-20.55-3.19-41.25-5A247.67,247.67,0,0,0,188.28,135Zm28.26-73.85q-18,2.59-36,4.11a160.08,160.08,0,0,0-8.36-23.59A99.2,99.2,0,0,0,160.5,21.91,110.84,110.84,0,0,1,216.54,61.17Zm-167-11.62A111,111,0,0,1,95.49,21.91l-.79,1A128.12,128.12,0,0,0,75.54,65.28q-18.09-1.53-36.08-4.11A112.62,112.62,0,0,1,49.55,49.55ZM39.46,194.83q18-2.6,36.05-4.11a160.08,160.08,0,0,0,8.36,23.59A99.2,99.2,0,0,0,95.5,234.09a110.84,110.84,0,0,1-56-39.26Zm167,11.62a111,111,0,0,1-45.94,27.64l.79-1a128.12,128.12,0,0,0,19.16-42.36q18.09,1.53,36.08,4.11a112.62,112.62,0,0,1-10.09,11.62Z"/></svg>