<svg xmlns="http://www.w3.org/2000/svg" viewBox="0 0 256 256" fill="#FFF"><path d="M44.16,136l52.35,24a5.33,5.33,0,0,0,4.55,0l52.35-24a5.84,5.84,0,0,0,3.29-5.06V67.43a5.27,5.27,0,0,0-3.29-5.05l-52.35-24a5.34,5.34,0,0,0-4.8,0l-52.1,24a5.8,5.8,0,0,0-3.28,5.05v63.48A5.83,5.83,0,0,0,44.16,136Zm101.41-8.86-41.22,18.72V95l41.22-18.72ZM98.79,49.73l38.94,17.7L98.79,85.14,59.84,67.43ZM52.26,76.28,93.48,95v51.08l-41.22-19Z"/><path d="M237.62,185.28V13.57A5.61,5.61,0,0,0,232.06,8h-42a5.61,5.61,0,0,0-5.57,5.56v170.7H13.56A5.61,5.61,0,0,0,8,189.83v42a5.61,5.61,0,0,0,5.56,5.56H185a37,37,0,0,0,63-26.55A34.89,34.89,0,0,0,237.62,185.28Zm-31.36-35.15H195.64v-17.2h10.62a5.57,5.57,0,1,0,0-11.13H195.64V104.61h10.62a5.57,5.57,0,1,0,0-11.13H195.64V76.28h10.62a5.56,5.56,0,1,0,0-11.12H195.64V48h10.62a5.57,5.57,0,1,0,0-11.13H195.64V19.39h30.85V177.44a37.8,37.8,0,0,0-30.85,0V161.51h10.62a5.69,5.69,0,0,0,0-11.38ZM19.38,195.65h17.2v10.62a5.56,5.56,0,0,0,11.12,0V195.65H64.9v10.62a5.57,5.57,0,0,0,11.13,0V195.65H93.22v10.62a5.57,5.57,0,0,0,11.13,0V195.65h17.2v10.62a5.56,5.56,0,1,0,11.12,0V195.65h17.2v10.62a5.57,5.57,0,0,0,11.13,0V195.65h15.93a37.8,37.8,0,0,0,0,30.85H19.38Zm191.69,41.22a26.05,26.05,0,1,1,26-26.05C236.86,225.23,225.23,236.87,211.07,236.87Z"/><circle cx="211.07" cy="211.07" r="11.38"/></svg>