<svg xmlns="http://www.w3.org/2000/svg" viewBox="0 0 256 256" fill="#FFF"><path d="M106.2,192.58H45.75a9.34,9.34,0,0,1-8.48-5.45l-16-27.71h0L4.81,130.94a9.3,9.3,0,0,1,0-9.39L21.26,93.13q.15-.25.3-.48l16.15-28a9.29,9.29,0,0,1,8-4.66v0H87.83a2.8,2.8,0,0,1,2.73,3.38,22,22,0,0,0-.47,4.55,21.43,21.43,0,0,0,1.16,7,2.79,2.79,0,0,1-2.65,3.7H51.09l-13.46,23.3c-.09.18-.18.36-.28.53L23.59,126.28l13.76,23.83h0l0,0L51.09,174H106.2L120,150.11c.09-.16.19-.31.29-.47h0l13.48-23.35-13.48-23.35h0c-.1-.15-.2-.31-.29-.47l-5.33-9.23a2.79,2.79,0,0,1,1.82-4.13,21.65,21.65,0,0,0,10.18-5.38,2.8,2.8,0,0,1,4.34.63L136,93.13a5.45,5.45,0,0,1,.29.53L149.78,117h36.93a2.79,2.79,0,0,1,2.72,3.43,21.84,21.84,0,0,0-.57,5,21.56,21.56,0,0,0,1,6.61,2.73,2.73,0,0,1-.41,2.5,2.69,2.69,0,0,1-2.26,1.15H149.78l-13.45,23.3a5.45,5.45,0,0,1-.29.53l-13.76,23.84L136,207.1h0v0l3.92,6.78a2.8,2.8,0,0,1-1.7,4.1,21.56,21.56,0,0,0-9.9,5.81,2.77,2.77,0,0,1-2.36.82,2.71,2.71,0,0,1-2.07-1.37l-4-6.86h0Zm5.58-138.72a14,14,0,1,1-14,14A14,14,0,0,1,111.78,53.86Zm98.77,57.44a14,14,0,1,1-14.05,14A14,14,0,0,1,210.55,111.3ZM143.88,224.91a14,14,0,1,1-14,14.05A14,14,0,0,1,143.88,224.91Zm23.93,6H204.9l13.75-23.83h0l13.76-23.84L219,159.92c-.11-.16-.21-.32-.31-.49l-5.09-8.82a2.8,2.8,0,0,1,1.8-4.12A21.61,21.61,0,0,0,225.51,141a2.8,2.8,0,0,1,4.35.62l4.88,8.45.28.53,16.17,28a9.31,9.31,0,0,1,0,9.25l0,.07-16.41,28.42,0,0h0l-16.45,28.5a9.28,9.28,0,0,1-8,4.63v0H167.09a2.79,2.79,0,0,1-2.64-3.68,21.68,21.68,0,0,0,1.13-6.92,22.06,22.06,0,0,0-.5-4.64,2.79,2.79,0,0,1,2.73-3.39ZM116,43l3.93-6.8c.1-.17.19-.33.3-.49l16.15-28a9.24,9.24,0,0,1,8-4.66V3h65.8a9.34,9.34,0,0,1,8.48,5.45l16,27.71h0l16.45,28.49a9.3,9.3,0,0,1,0,9.39l-16.41,28.42a5.66,5.66,0,0,1-.31.48l-3.89,6.75a2.7,2.7,0,0,1-2.07,1.38,2.74,2.74,0,0,1-2.36-.83,21.65,21.65,0,0,0-9.89-5.83,2.8,2.8,0,0,1-1.69-4.09l3.84-6.65c.09-.18.18-.36.28-.53L232.42,69.3,218.65,45.47h0l0,0L204.92,21.64H149.78l-13.45,23.3c-.09.18-.18.35-.29.53l-4,7a2.72,2.72,0,0,1-2.09,1.38,2.75,2.75,0,0,1-2.36-.86,21.64,21.64,0,0,0-9.85-6A2.8,2.8,0,0,1,116,43Z"/></svg>