<?xml version="1.0" encoding="utf-8"?>
<svg version="1.1" xmlns="http://www.w3.org/2000/svg" xmlns:xlink="http://www.w3.org/1999/xlink" x="0px" y="0px" width="70px" height="70px"
	 viewBox="0 0 256 256" style="enable-background:new 0 0 256 256;" xml:space="preserve">
<g>
	<g>
		<path style="fill-rule:evenodd;clip-rule:evenodd;fill:#3f3fe9;" d="M128,0c70.7,0,128,57.3,128,128s-57.3,128-128,128
			S0,198.6,0,128S57.3,0,128,0z M192.8,37.7l-16,5.8c-1.2,0.4-2.5,0.1-3.4-0.8l-6.6-6.9c-1.1-1.1-2.7-1.3-4-0.5l-15.9,9.7
			c-1.5,0.9-2,2.9-1.1,4.4l1.2,2c0.8,1.3,0.5,3-0.7,4.1l-12.8,11c-0.9,0.8-1.3,2-1,3.2c0.3,1.2,1.2,2.1,2.4,2.4l11.5,2.6
			c0.5,0.1,0.9,0.1,1.3,0l18-3.7c1.1-0.2,2.2,0.1,3,0.9L180,83.6c0.9,1,1.2,2.3,0.6,3.6l-3.4,7.4c-0.6,1.2-1.8,1.9-3.1,1.9l-48.8-3
			c-1.4-0.1-2.6,0.7-3.1,1.9l-6.1,14.2c-0.4,1-0.4,2,0.2,2.9l9.2,15.1c0.6,1,1.5,1.5,2.7,1.5l18.3,0.4c1.4,0,2.6,0.9,3,2.3l3.2,11.2
			c0,0.1,0.1,0.2,0.1,0.3l6.9,37c0.3,1.6,1.7,2.7,3.3,2.6l6.2-0.2c1.3,0,2.3-0.8,2.8-2l17.1-40.8c0.1-0.2,0.2-0.4,0.3-0.6l9-12.8
			c0.6-0.8,0.7-1.8,0.5-2.7c-0.3-1-0.9-1.7-1.8-2.1l-5.1-2.2c-0.5-0.2-1-0.3-1.5-0.2l-3.5,0.3c-1.5,0.1-2.9-0.8-3.3-2.3l-1.7-5.8
			c-0.2-0.7,0.1-1.4,0.7-1.8c0.6-0.4,1.4-0.3,1.9,0.2c0.9,0.8,2.2,1.1,3.4,0.5l7.9-3.5c0.8-0.4,1.4-1,1.7-1.9
			c0.3-0.9,0.2-1.7-0.2-2.6l-0.4-0.8c-0.3-0.5-0.7-0.8-1.3-0.8c-1-0.1-1.8-0.6-2.4-1.4c-0.7-1.1-0.7-2.3-0.1-3.4l1.7-2.7
			c0.8-1.3,2.3-1.8,3.7-1.4l18.9,6.4c0.6,0.2,1,0.5,1.4,1l4.6,5.4c0.4,0.5,0.8,0.8,1.4,1l2,0.7c1,0.4,1.7,1.1,2,2.2l4.4,16.1
			c0.3,1.2,1.3,2.1,2.5,2.3l1.1,0.2c1,0.2,1.9-0.1,2.7-0.7c0.8-0.7,1.1-1.5,1.1-2.5c-1.3-34.9-18.5-65.8-44.6-85.5
			C194.9,37.5,193.9,37.3,192.8,37.7z M66.3,34.1l22-4.4c1.2-0.2,2.3,0.1,3,1l3.7,4.2c0.8,0.9,1,2,0.6,3.1c-0.4,1.1-1.3,1.9-2.4,2.1
			l-4.7,0.9c-0.9,0.2-1.7,0-2.5-0.5l-2.6-1.9c-0.9-0.6-1.9-0.8-2.9-0.4l-11.8,3.9c-1.3,0.4-2.1,1.5-2.2,2.9l-0.3,5.5
			c0,0.9,0.2,1.7,0.8,2.3c0.6,0.7,1.4,1,2.2,1l13.1,0.5c1.1,0,2.1,0.6,2.6,1.6l4,6.8c0.9,1.5,0.4,3.3-1,4.3l-33.9,23
			c-0.6,0.4-1.2,0.6-1.9,0.5l-12.5-0.5c-1.2,0-2.2,0.5-2.8,1.4l-5.2,7.8c-0.9,1.3-0.7,3,0.5,4.1l3.2,3c0.9,0.8,2.1,1.1,3.3,0.7
			l10.2-3.7c1.3-0.5,2.6-0.1,3.5,0.9l1.6,1.9c0.3,0.3,0.4,0.7,0.4,1.2c0,0.4-0.2,0.8-0.6,1.1l-1.1,1c-1.2,1.1-1.5,2.8-0.6,4.2l3.9,6
			c0.6,1,1.7,1.5,2.9,1.4l15.3-0.9c0.8,0,1.5,0.1,2.2,0.7L93.8,136c0.4,0.3,0.8,0.5,1.2,0.6l7.7,1.8c1.7,0.4,2.8,2,2.4,3.7l-3,15.2
			c-0.1,0.4-0.2,0.7-0.4,1.1l-17.1,33.9c-0.1,0.3-0.3,0.5-0.3,0.7l-2.4,7.9c-0.2,0.6-0.2,1.2,0,1.9l1.3,4.5c0.1,0.3,0.1,0.6,0.1,0.9
			v2.3c0,0.7,0.2,1.3,0.6,1.8l0,0c0.7,1,0.8,2.2,0.2,3.3c-0.6,1.1-1.6,1.7-2.8,1.7h-1.9c-1.4,0-2.6-0.8-3-2.1l-8.9-25.6
			c-0.1-0.4-0.2-0.7-0.2-1.1l0.6-25.7c0-1.1-0.4-2.2-1.4-2.8l-22.4-11.8c-0.9-0.5-1.4-1.5-1.4-2.5l-0.3-7c0-0.4-0.2-0.8,0.1-1.1
			l6.6-5.9c0.7-0.6,0.2-1.8-0.3-2.6l-8.4-14.1c-0.5-0.9-1.3-1.4-2.3-1.5l-10.4-1.3c-0.6-0.1-1.1-0.3-1.6-0.7l-6.7-5.4
			c-1-0.8-1.4-2-1.1-3.2c6.4-28.4,23.5-52.7,46.9-68.5C65.5,34.4,65.8,34.2,66.3,34.1z"/>
	</g>
	
		<text transform="matrix(1 0 0 1 4.401684e-02 255.9719)" style="fill:#3f3fe9; font-family:'Arial-BoldMT'; font-size:1.999317e-02px;">Created by popcornarts</text>
	
		<text transform="matrix(1 0 0 1 4.401684e-02 255.9924)" style="fill:#3f3fe9; font-family:'Arial-BoldMT'; font-size:1.999317e-02px;">from the Noun Project</text>
</g>
</svg>
