<?xml version="1.0" encoding="utf-8"?>
<svg version="1.1" id="Layer_1" xmlns="http://www.w3.org/2000/svg" xmlns:xlink="http://www.w3.org/1999/xlink" x="0px" y="0px" width="70px" height="70px"
	 viewBox="0 0 256 256" style="enable-background:new 0 0 256 256;" xml:space="preserve">
<g>
	<g>
		<path style="fill:#3f3fe9;" d="M168.1,243c-9,0-17.5-2.9-24.7-8.3c-9.1-6.9-21.7-6.9-30.8,0c-7.2,5.4-15.7,8.3-24.7,8.3
			s-17.5-2.9-24.7-8.3c-9.1-6.9-21.7-6.9-30.8,0l-9.3-12.3c7.2-5.4,15.7-8.3,24.7-8.3s17.5,2.9,24.7,8.3c9.1,6.9,21.7,6.9,30.8,0
			c7.2-5.4,15.7-8.3,24.7-8.3s17.5,2.9,24.7,8.3c9.1,6.9,21.7,6.9,30.8,0c7.2-5.4,15.7-8.3,24.7-8.3c9,0,17.5,2.9,24.7,8.3
			l-9.3,12.3c-9.1-6.9-21.7-6.9-30.8,0C185.7,240.1,177.1,243,168.1,243z"/>
		<path style="fill:#3f3fe9;" d="M216.2,162.1c-1.3-0.3-2.7-0.5-4.1-0.6c-1.3-0.1-2.6-0.2-4-0.2h0c-9,0-17.5,2.9-24.7,8.3
			c-9.1,6.9-21.7,6.9-30.8,0c-7.2-5.4-15.7-8.3-24.7-8.3s-17.5,2.9-24.7,8.3c-9.1,6.9-21.7,6.9-30.8,0c-4.1-3.1-8.6-5.3-13.4-6.7
			c-1.3-0.4-2.6-0.7-3.9-0.9c-1.4-0.3-2.7-0.4-4.1-0.5c2.4-4.4,8.7-17,11.3-36.4c3-22.4,1.4-58.7-22.7-104.3c-0.7-1.4-0.7-3.1,0-4.6
			c0.8-1.4,2.2-2.4,3.8-2.5c3.9-0.4,14.6-1.2,29,0.4c18.1,2,35.4,6.8,51.3,14.4c21.4,10.3,39.7,25.4,54.5,45
			C196.1,96.7,208.8,126.5,216.2,162.1z"/>
		<path style="fill:#3f3fe9;" d="M232.9,187.6l-9.3,12.3c-2.8-2.1-6-3.6-9.3-4.4c-1.3-0.3-2.5-0.5-3.8-0.6c-1.3-0.1-2.6-0.1-3.9-0.1
			c-4.9,0.3-9.7,2-13.8,5.1c-1,0.7-1.9,1.4-2.9,2c-2.4,1.5-4.9,2.8-7.6,3.8c-4.5,1.7-9.3,2.5-14.3,2.5c-5.3,0-10.5-1-15.3-3
			c-2.6-1.1-5.1-2.4-7.5-4c-0.7-0.4-1.3-0.9-2-1.4c-9.1-6.9-21.7-6.9-30.8,0c-0.4,0.3-0.8,0.6-1.3,1c-2.1,1.5-4.3,2.7-6.6,3.8
			c-5.2,2.4-10.9,3.6-16.8,3.6c-6.3,0-12.3-1.4-17.8-4.1c-2.3-1.1-4.4-2.4-6.5-3.9c-0.1-0.1-0.3-0.2-0.4-0.3
			c-1.2-0.9-2.4-1.7-3.7-2.3c-1.3-0.7-2.7-1.3-4.2-1.7c-1.3-0.4-2.7-0.7-4-0.9c-6.6-0.9-13.4,0.7-18.9,4.9l-9.3-12.3
			c7.2-5.4,15.7-8.3,24.7-8.3c1.1,0,2.2,0.1,3.3,0.1c1.4,0.1,2.7,0.3,4.1,0.5c1.3,0.2,2.6,0.5,3.9,0.9c4.8,1.4,9.3,3.6,13.4,6.7
			c9.1,6.9,21.7,6.9,30.8,0c7.2-5.4,15.7-8.3,24.7-8.3s17.5,2.9,24.7,8.3c9.1,6.9,21.7,6.9,30.8,0c7.2-5.4,15.7-8.3,24.7-8.3h0
			c1.3,0,2.6,0.1,4,0.2c1.4,0.1,2.7,0.3,4.1,0.6C222.3,181.3,227.9,183.8,232.9,187.6z"/>
	</g>
</g>
</svg>
