<?xml version="1.0" encoding="utf-8"?>
<svg version="1.1" id="Layer_1" xmlns="http://www.w3.org/2000/svg" xmlns:xlink="http://www.w3.org/1999/xlink" x="0px" y="0px" width="70px" height="70px"
	 viewBox="0 0 256 256" style="enable-background:new 0 0 256 256;" xml:space="preserve">
<g>
	<g>
		<path style="fill:#3f3fe9;" d="M119,121.3l-3.8-1.6c-1.9-0.8-4-0.3-5.7,1.1l-12.1,12.1c-0.8,1.1-1.3,2.2-1.6,3.5v5.1
			c7.8-1.1,16.4-2.4,25.9-4.6l0.5-10.8C122.5,124.2,121.2,122.1,119,121.3z"/>
		<path style="fill:#3f3fe9;" d="M196.1,136.6c19.1-10.5,27.8-21.3,25.1-31.8s-15.1-15.9-36.9-16.2c-1.3,0-3,0-4.3,0
			c-11.9-15.9-31-26.1-52.3-26.1c-32.9,0-60.1,24.3-65,55.8c-0.8,0.5-1.9,1.1-2.7,1.3c-19.1,10.5-27.8,21.3-25.1,31.8
			c2.7,10.5,15.1,15.9,36.9,16.2c1.1,0,2.2,0,3.2,0c11.9,15.9,31,26.1,52.3,26.1c32.6,0,59.6-24,64.7-55
			C193.4,138,194.7,137.2,196.1,136.6z M127.4,177.6c-11.9,0-22.9-4.3-31.5-11.3c12.4-1.3,25.9-3.8,39.9-7.3
			c1.3-0.3,2.7-0.8,4.3-1.1c0,0,3,4.6,8.1,4.9c5.7,0.5,4.3,7.3,5.7,7.3C146,174.9,137.1,177.6,127.4,177.6z M131.4,142.3
			c-43.7,10.8-73.3,9.2-79.5,4.9c0.8-1.3,3.5-4.6,10.8-9.2c0.3,1.9,0.5,3.5,1.1,5.4c4.6,0.3,10.2,0.3,16.7,0
			c-1.6-4.9-2.4-10-2.4-15.1c0-2.4,0.3-5.1,0.5-7.5c0.5,0.5,1.3,0.8,2.2,0.8l5.4,0.5c2.2,0.3,4.3-1.1,4.9-3.2l3-9.7
			c0.5-1.3,1.3-2.4,2.7-3l12.7-4.9c0.5-0.3,1.1-0.3,1.6-0.3h10.2c1.3,0,2.4-0.5,3.2-1.3l5.1-5.1c1.3-1.3,1.9-3.5,0.8-5.4l-4.9-10.5
			c0.5,0,0.8,0,1.3,0c16.4,0,31,8.1,40.2,20.5l-12.1-1.9c-1.6-0.3-3.5,0.3-4.6,1.6l-8.1,9.2c-1.9,2.2-1.6,5.1,0.3,7l0.8,0.8
			c1.9,1.6,2.2,4.6,0.5,6.7l-4.9,7c-0.3,0.5-0.5,0.8-0.8,1.3l-0.8,2.4c16.7-4.6,32.3-10.5,44.5-16.7c3.2-1.6,6.2-3.2,8.4-4.9
			c-0.5-1.9-1.1-4-1.9-5.9c7.5,0.5,12.7,1.6,14.8,3.2c-1.1,1.9-5.4,7-19.7,14.3C170.2,130.4,151.3,137.2,131.4,142.3z"/>
		<path style="fill:#3f3fe9;" d="M209.8,186.5l-5.7-2.2c-1.6-0.5-3-1.9-3.8-3.8l-2.2-5.7c-0.3-0.8-1.6-0.8-1.9,0l-2.2,5.7
			c-0.5,1.6-1.9,3-3.8,3.8l-5.9,2.2c-0.8,0.3-0.8,1.6,0,1.9l5.7,2.2c1.6,0.5,3,1.9,3.8,3.8l2.2,5.7c0.3,0.8,1.6,0.8,1.9,0l2.2-5.7
			c0.5-1.6,1.9-3,3.8-3.8l5.7-2.2C210.6,188.1,210.6,186.8,209.8,186.5z"/>
		<path style="fill:#3f3fe9;" d="M254.6,154.1l-10.8-4.3c-3.2-1.1-5.7-3.8-7-7l-4-11.1c-0.5-1.6-3-1.6-3.8,0l-4,11.3
			c-1.3,3.2-3.8,5.7-7,7l-11.1,4c-1.6,0.5-1.6,3,0,3.8l11.1,4c3.2,1.1,5.7,3.8,7,7l4,11.1c0.5,1.6,3,1.6,3.8,0l4-11.1
			c1.1-3.2,3.8-5.7,7-7l10.8-4.3C256.5,157.1,256.5,154.7,254.6,154.1z"/>
		<path style="fill:#3f3fe9;" d="M44.1,69.5l5.7,2.2c1.6,0.5,3,1.9,3.8,3.8l2.2,5.7c0.3,0.8,1.6,0.8,1.9,0l2.2-5.7
			c0.5-1.6,1.9-3,3.8-3.8l5.7-2.2c0.8-0.3,0.8-1.6,0-1.9l-5.7-2.2c-1.6-0.5-3-1.9-3.8-3.8L57.5,56c-0.3-0.8-1.6-0.8-1.9,0l-2.2,5.7
			c-0.5,1.6-1.9,3-3.8,3.8l-5.7,2.2C43,67.9,43,69.2,44.1,69.5z"/>
		<path style="fill:#3f3fe9;" d="M48.9,104c1.6-0.5,1.6-3,0-3.8l-11.1-4c-3.2-1.3-5.7-3.8-7-7l-4-11.1c-0.5-1.6-3-1.6-3.8,0l-4,11.1
			c-1.1,3.2-3.8,5.7-7,7l-10.8,4c-1.6,0.5-1.6,3,0,3.8l10.8,4.3c3.2,1.1,5.7,3.8,7,7l4,11.1c0.5,1.6,3,1.6,3.8,0l4-11.1
			c1.1-3.2,3.8-5.7,7-7L48.9,104z"/>
	</g>
</g>
</svg>
