<?xml version="1.0" encoding="utf-8"?>
<svg version="1.1" xmlns="http://www.w3.org/2000/svg" xmlns:xlink="http://www.w3.org/1999/xlink" x="0px" y="0px" width="70px" height="70px"
	 viewBox="0 0 256 256" style="enable-background:new 0 0 256 256;" xml:space="preserve">
<g>
	<path fill="#010101" d="M128,145.1c-9.4,0-17.1-7.7-17.1-17.1s7.7-17.1,17.1-17.1c9.4,0,17.1,7.7,17.1,17.1
		C145.1,137.4,137.4,145.1,128,145.1 M128,93.9c-18.8,0-34.1,15.3-34.1,34.1s15.3,34.1,34.1,34.1c18.8,0,34.1-15.3,34.1-34.1
		S146.8,93.9,128,93.9 M224.1,183.5c-5.3,9.2-21.9,12.5-44.1,9.1c3.7-14,6.2-29.7,7.2-46.9l-17-1.1c-3.6,58.3-24.7,94.4-42.2,94.4
		c-10.6,0-21.7-12.7-29.9-33.6c13.9-3.8,28.8-9.6,44.3-17.3l-7.6-15.3c-52.3,26.1-94.1,25.8-102.8,10.7c-5.3-9.2,0.1-25.2,14.2-42.7
		c10.3,10.2,22.7,20.2,37.1,29.7l9.4-14.2C43.9,124,23.2,87.7,31.9,72.5c5.3-9.2,21.9-12.5,44.1-9.1c-3.7,14-6.2,29.7-7.2,46.9
		l17,1.1c3.6-58.3,24.7-94.4,42.2-94.4c10.6,0,21.7,12.7,29.9,33.6c-13.9,3.8-28.8,9.5-44.3,17.2l7.6,15.3
		c52.3-26.1,94.1-25.8,102.8-10.7c5.3,9.2-0.1,25.2-14.2,42.7c-10.3-10.2-22.7-20.2-37.1-29.7l-9.4,14.2
		C212.1,132,232.8,168.3,224.1,183.5 M221.5,127.8c20.3-24.5,26.7-47.5,17.3-63.8c-9.7-16.8-33.5-22.4-64.2-17.1
		C163.5,17.1,146.8,0,128,0c-19.3,0-36.1,17.8-46.9,47.1C49.7,41.8,26.5,47.7,17.2,64c-9.7,16.7-2.6,40.2,17.3,64.2
		C14.2,152.7,7.7,175.7,17.2,192c7.3,12.7,22.8,19,43.3,19c6.5,0,13.5-0.7,20.9-2c11.1,29.8,27.8,47,46.6,47
		c19.3,0,36.1-17.8,46.9-47.1c7.4,1.2,14.5,2.1,20.8,2.1c20.7,0,35.9-6.5,43.1-18.9C248.5,175.3,241.5,151.8,221.5,127.8"/>
</g>
</svg>
