<svg xmlns="http://www.w3.org/2000/svg" viewBox="0 0 256 256" fill="#FFF"><path d="M146.32,86.55c0,1.48-.24,2.93-.27,4.41.08-2.18,0-.08-.14.57-.16.88-.37,1.77-.61,2.66-.35,1.24-.84,2.42-1.24,3.63.72-2.12-.14.27-.41.81s-.69,1.32-1.07,2-.65,1-1,1.56c-.21.3-.4.59-.62.89s-.86,1.16-.13.19,0,0-.16.16-.46.54-.7.81c-.49.53-1,1-1.48,1.53s-.86.78-1.32,1.16-1.37.78.27-.19a8.41,8.41,0,0,0-.84.59,23.1,23.1,0,0,1-3.25,1.85c-.54.27-1.48.38.38-.13a8.88,8.88,0,0,0-.95.35,15.6,15.6,0,0,1-1.61.48c-.54.14-1.1.25-1.64.35-1.29.27,1.78-.16.43,0-.4,0-.81.08-1.18.08-.65,0-1.27,0-1.91,0s-2.48-.51-.24,0c-1.32-.33-2.64-.54-3.93-1a5.27,5.27,0,0,0-.62-.24c1.83.51.91.4.38.13s-1-.51-1.51-.78-1.18-.69-1.75-1.07l-.56-.4c-.94-.65,1.34,1.12,0,0a30.91,30.91,0,0,1-2.8-2.69c-.4-.44-.75-1-1.16-1.38,1.32,1.35.51.68.19.22-.21-.3-.43-.59-.62-.89a36.19,36.19,0,0,1-2-3.52c-.27-.57-.51-1.16-.78-1.7.91,1.78.29.68.11.19s-.27-.73-.38-1.07a36.35,36.35,0,0,1-1.13-4.12c-.14-.62-.16-1.32-.35-1.94.54,1.75.11.84.05.22s-.1-1.08-.13-1.59a33.53,33.53,0,0,1,0-4c0-.37.05-.78.08-1.15.05-.57.43-1.67,0,.29.16-.7.24-1.42.4-2.15.27-1.18.7-2.29,1-3.44.27-.84-.75,1.64-.24.54.13-.3.27-.6.43-.89a18.28,18.28,0,0,1,.94-1.67c.27-.46.59-.86.89-1.32.69-1-1.11,1.32-.3.38l.59-.7c.75-.83,1.62-1.53,2.45-2.31-1.7,1.58-.19.16.38-.22l1.31-.81c.46-.24.92-.48,1.38-.69s1.56-.6-.46.16l1-.41a27.2,27.2,0,0,1,3.23-.94c.59-.13,1.18-.24,1.77-.35s1.43-.08-.64.08c.46,0,.89-.1,1.34-.13,1.13-.08,2.29-.14,3.42-.11.67,0,1.37,0,2,.11.22,0,.46,0,.68.05,1.77.19-1.3-.24-.14,0a28.15,28.15,0,0,1,3.79.86q1,.32,2.1.72c.46.19.92.57-.72-.32.37.19.75.35,1.12.54a24.83,24.83,0,0,1,3.15,1.93c1,.7-1.32-1.1-.4-.29l.81.7a17,17,0,0,1,1.39,1.42l.41.46c1.1,1.29-.73-1.08-.08-.13.35.51.72,1,1,1.58s.64,1.13.91,1.7l.4.89c-1-2-.26-.57-.08-.06a25.55,25.55,0,0,1,1,4.09c.08.51.14,1.8,0-.32,0,.37.08.75.1,1.13.08.88.14,1.83.14,2.74,0,3.52,3.06,6.89,6.72,6.72a6.84,6.84,0,0,0,6.73-6.72c0-6.7-1.67-13.64-5.76-19.07a29.87,29.87,0,0,0-15.74-10.81c-11.64-3.39-26.33-.94-34.59,8.5-9.68,11-9.38,27.54-3.09,40.21,6.21,12.48,19.8,20.82,33.84,17.48,16-3.82,25.23-20.82,25.31-36.31,0-3.52-3.12-6.89-6.72-6.72A6.83,6.83,0,0,0,146.32,86.55Z"/><path d="M186.53,185.32V166.38a48.49,48.49,0,0,0-.62-9.84A24.83,24.83,0,0,0,173,139.75c-5.41-2.69-11.08-4.94-16.6-7.42l-9.06-4c-.57-.25-1.13-.52-1.7-.76-3.17-1.4-7-1.42-9.55,1.4-.16.19-.29.38-.43.57q-6.25,8.07-12.53,16.13L133.73,147c-3.79-5-7.61-9.93-11.41-14.9-.45-.6-.91-1.19-1.37-1.81-2.77-3.6-6.4-4.6-10.6-2.77-.13.06-.26.14-.4.19q-3.75,1.65-7.5,3.34c-6.19,2.74-12.38,5.46-18.56,8.23A24.62,24.62,0,0,0,72,150.78a30.36,30.36,0,0,0-2.69,13.34v21.2c0,3.52,3.1,6.89,6.73,6.72a6.84,6.84,0,0,0,6.72-6.72V162.05a7.13,7.13,0,0,1,0-.8c0-.27.24-1.94,0-.68s0,0,.06-.27c.08-.37.16-.75.27-1.13.16-.61.37-1.21.59-1.82.46-1.32-.73,1.45-.08.21.19-.35.32-.67.51-1a12.77,12.77,0,0,0,1.21-1.94l-.59.76c.16-.19.32-.41.48-.6l.51-.56a21.93,21.93,0,0,1,1.67-1.56c1-.89-1,.72-.29.24.26-.19.53-.38.8-.54a19.22,19.22,0,0,1,2.23-1.21c5.14-2.36,10.36-4.6,15.55-6.88,3.07-1.38,6.16-2.72,9.23-4.09.7-.3,1.4-.59,2.07-.92,2.66-1.31-9.23-4.41-7.59-2l.65.86,12,15.76c1.34,1.75,2.66,2.91,4.92,3.2,1.91.24,4.39-.21,5.65-1.85,2.18-2.83,4.38-5.65,6.56-8.45,1.48-1.91,3-3.82,4.44-5.7.49-.62,1-1.27,1.45-1.88.14-.17.27-.33.38-.49.27-.43,1.72-1,.7-.61-.81-1.64,0-.64-1.12-.34,1.18-2.95-7.08,1.06-6,1.54a6.48,6.48,0,0,0,.62.27l2.18,1c2.26,1,4.55,2,6.8,3,4.87,2.18,9.74,4.33,14.61,6.51a42.6,42.6,0,0,1,4,1.88c.46.27.89.54,1.32.84s.35.61-.43-.35a4.58,4.58,0,0,0,.59.48,19,19,0,0,1,2.23,2.34c.54.65-.8-1.16-.37-.46.13.22.29.41.43.62.27.43.53.86.78,1.32.1.22.86,1.88.4.75s-.08-.16,0,.08.24.73.35,1.11.27,1,.38,1.48c.05.24.08.51.13.75.16.86-.13-1.51-.08-.62,0,.62.08,1.21.08,1.83v23.24c0,3.52,3.09,6.89,6.73,6.72a6.83,6.83,0,0,0,6.72-6.72Z"/><path d="M121.76,9.73V31.3c0,3.53,3.09,6.89,6.72,6.73a6.85,6.85,0,0,0,6.73-6.73V9.73c0-3.52-3.09-6.89-6.73-6.72a6.83,6.83,0,0,0-6.72,6.72Z"/><path d="M121.76,224.7v21.57c0,3.52,3.09,6.89,6.72,6.72a6.84,6.84,0,0,0,6.73-6.72V224.7c0-3.53-3.09-6.89-6.73-6.73a6.84,6.84,0,0,0-6.72,6.73Z"/><path d="M228.38,128c0,2.88-.1,5.78-.35,8.66-.1,1.37-.24,2.72-.4,4.06,0,.57-.43,2.75,0,.41-.14.72-.22,1.45-.33,2.17a108.58,108.58,0,0,1-3.82,15.93c-.86,2.61-1.8,5.22-2.85,7.75-.19.43-.78,1.61.14-.3-.11.21-.19.43-.3.64-.29.65-.56,1.32-.89,2-.53,1.18-1.1,2.37-1.69,3.52a105.55,105.55,0,0,1-8.23,13.64c-.75,1.05-1.56,2.07-2.32,3.12,1.35-1.88-.13.16-.45.59s-.89,1.1-1.35,1.64c-1.66,2-3.39,3.9-5.16,5.76s-3.82,3.82-5.84,5.62c-1,.86-1.94,1.69-2.93,2.53-.46.37-.91.75-1.37,1.1-.27.22-.54.43-.84.65-.88.7-.32.21.25-.19A148.42,148.42,0,0,1,176.28,216c-2.39,1.31-4.81,2.55-7.31,3.68-.54.24-1.08.49-1.65.73s-1.66.67.3-.11l-1,.4c-1.22.49-2.45,1-3.69,1.43a111,111,0,0,1-15.68,4.41c-1.32.27-2.64.51-4,.73-.73.1-1.45.18-2.18.32.05,0,1.8-.24.7-.08-.49.05-1,.13-1.48.19-2.72.32-5.46.51-8.2.62a107.16,107.16,0,0,1-16.9-.68l-1.1-.13c-1.4-.16,1.72.24.32.05-.62-.08-1.21-.19-1.83-.27-1.45-.24-2.9-.48-4.33-.78-2.61-.53-5.21-1.15-7.77-1.88S95.21,223,92.63,222c-1.24-.45-2.45-.94-3.69-1.42-.21-.08-.43-.19-.67-.27,2,.78.73.3.3.11-.65-.3-1.32-.57-2-.89a106.33,106.33,0,0,1-14-7.75c-1.07-.7-2.15-1.45-3.2-2.17-.56-.41-1.15-.84-1.72-1.24s-2.39-1.89-.62-.43c-2-1.62-4-3.23-5.94-5a107.49,107.49,0,0,1-11-11.4c-.45-.54-.88-1.11-1.34-1.64-.3-.38-1.59-2.16-.24-.3-.84-1.16-1.7-2.26-2.5-3.42-1.51-2.12-2.91-4.3-4.25-6.51s-2.72-4.7-3.93-7.15c-.59-1.16-1.16-2.34-1.7-3.52-.24-.54-.48-1.08-.72-1.64s-.67-1.67.11.29c-.14-.32-.27-.67-.41-1a106.82,106.82,0,0,1-5-15.44c-.65-2.72-1.21-5.49-1.64-8.26-.11-.62-.19-1.21-.27-1.83.37,2.42,0-.22-.08-.78-.17-1.34-.3-2.72-.38-4.09a107.65,107.65,0,0,1,0-16.94c.1-1.38.24-2.72.4-4.07.05-.37.08-.72.13-1.1.17-1.34-.21,1.43-.05.51s.24-1.58.35-2.36c.43-2.64,1-5.28,1.61-7.89a107.41,107.41,0,0,1,5-15.41c.19-.43.75-1.61-.14.3a10,10,0,0,0,.43-1l.73-1.61c.59-1.29,1.21-2.58,1.85-3.85,1.19-2.31,2.45-4.6,3.8-6.83s2.9-4.57,4.46-6.78l1.05-1.42c.32-.43,1.91-2.42.43-.62.81-1,1.62-2,2.42-3a109.53,109.53,0,0,1,11-11.38c1-.86,1.94-1.7,2.94-2.53.48-.4,1-.81,1.5-1.21.24-.19.46-.38.7-.54,1.4-1.1-.89.67,0,0,2.07-1.56,4.17-3.06,6.35-4.46a105.53,105.53,0,0,1,14-7.69c.65-.3,1.29-.6,2-.86,1-.44-.57.24-.62.26.32-.13.67-.26,1-.4,1.32-.54,2.67-1,4-1.53q3.72-1.34,7.56-2.42c2.69-.76,5.41-1.4,8.15-1.94,1.32-.27,2.64-.48,4-.7.62-.11,1.21-.16,1.83-.27-2.37.41.16,0,.78-.08a112.11,112.11,0,0,1,16.89-.62c2.85.11,5.73.35,8.55.7l.92.11c.91.11-1.83-.27-.51-.05l2.18.32c1.32.21,2.66.46,4,.72a105.89,105.89,0,0,1,15.65,4.47c1.24.46,2.45.94,3.69,1.43.43.18,1.61.75-.3-.14.27.14.54.24.81.35l2.12.94c2.37,1.1,4.68,2.29,7,3.55s4.71,2.75,7,4.23c1.07.72,2.15,1.45,3.2,2.2l1.42,1.05c.43.32,2.42,1.88.62.43a122,122,0,0,1,11.78,10.6c1.86,1.93,3.66,4,5.38,6.05.38.46.76.91,1.11,1.37l.64.84c.83,1-1-1.32-.19-.25s1.56,2.07,2.29,3.12a110,110,0,0,1,8.18,13.67c.59,1.15,1.15,2.34,1.69,3.52.27.59.54,1.18.81,1.8.19.43.54,1.38-.19-.45.19.43.38.88.54,1.31,1,2.45,1.88,4.93,2.69,7.43a104.92,104.92,0,0,1,3.76,15.92c.08.57.43,3.2.14.78.08.62.16,1.24.21,1.83.16,1.35.3,2.72.38,4.09a59.33,59.33,0,0,1,.48,8.23c0,3.52,3.1,6.89,6.73,6.72a6.84,6.84,0,0,0,6.72-6.72A113.84,113.84,0,0,0,221,62.45a115.71,115.71,0,0,0-54.47-41.56,113.83,113.83,0,0,0-86,210.56,115.7,115.7,0,0,0,70.69,8,113.78,113.78,0,0,0,89.09-93.26A121.46,121.46,0,0,0,241.8,128c0-3.52-3.09-6.89-6.72-6.72A6.82,6.82,0,0,0,228.38,128Z"/><path d="M224.7,134.72h21.57c3.52,0,6.89-3.09,6.72-6.72a6.84,6.84,0,0,0-6.72-6.72H224.7c-3.53,0-6.89,3.09-6.73,6.72a6.85,6.85,0,0,0,6.73,6.72Z"/><path d="M9.73,134.72H31.3c3.53,0,6.89-3.09,6.73-6.72a6.85,6.85,0,0,0-6.73-6.72H9.73c-3.52,0-6.89,3.09-6.72,6.72a6.84,6.84,0,0,0,6.72,6.72Z"/></svg>