<svg xmlns="http://www.w3.org/2000/svg" viewBox="0 0 256 256" fill="#FFF"><path d="M247.15,237.62,167.84,91V22.06h7a7,7,0,1,0,0-14.06H81.13a7,7,0,1,0,0,14.06h7V91L8.85,237.62a7,7,0,0,0,2.84,9.53A6.94,6.94,0,0,0,15,248H241a7,7,0,0,0,6.18-10.38ZM101.37,96.13a7,7,0,0,0,.85-3.35V22.06h51.56V92.77a7,7,0,0,0,.85,3.35l31.27,57.82A64.73,64.73,0,0,0,128.55,159a51,51,0,0,1-57.23-3l-1.66-1.27ZM26.84,233.94l36.05-66.66a64.42,64.42,0,0,0,35.86,13.15c1.14.06,2.27.09,3.41.09A64.46,64.46,0,0,0,135.91,171a50.65,50.65,0,0,1,51.5-.81l10.53,6,31.23,57.75Z"/></svg>